<?xml version="1.0" encoding="utf-8"?>
<!-- Generator: Adobe Illustrator 24.3.0, SVG Export Plug-In . SVG Version: 6.00 Build 0)  -->
<svg version="1.1" id="Layer_1" xmlns="http://www.w3.org/2000/svg" xmlns:xlink="http://www.w3.org/1999/xlink" x="0px" y="0px"
	 viewBox="0 0 512 512" style="enable-background:new 0 0 512 512;" xml:space="preserve">
<style type="text/css">
	.st0{stroke:#000000;stroke-width:2;stroke-miterlimit:10;}
</style>
<path class="st0" d="M413.8,242c10.9,10.4,11.7,22.7,2.5,35.9c6.9,5.8,7.6,13.5,6.5,21.8c-0.7,5.1-3.2,9.2-7.4,12.1
	c-2,1.4-2.8,2.8-2.8,5.1c-0.1,3.4-0.3,6.7-0.7,10.1c-2.3,17-15.2,28.5-32.3,28.9c-0.5,0-1,0-1.5,0c-69.5,0-139,0-208.5,0
	c-17.4,0-30.8-10.8-33.5-27.1c-0.8-4.8-1-9.7-1.7-14.5c-0.1-1.1-0.7-2.4-1.4-3.2c-8.8-8.8-9.4-22.2-1.5-31.8
	c0.2-0.3,0.4-0.6,0.6-0.9c-10.5-13.7-9.5-27.2,2.7-37c-5.1-11.6-3.1-23.5-0.8-35.2c6.3-30.9,25.7-51.3,53.5-64.5
	c18.7-8.9,38.7-13.2,59.2-14.6c26.1-1.7,52.1-1.3,77.8,4.2c24.2,5.2,46.7,14.2,65.1,31.5c19.9,18.8,28.3,42.3,27.6,69.3
	c0,1.7-0.5,3.5-1.1,5.1C415.5,239,414.6,240.5,413.8,242z M274.7,239.3c41.7,0,83.3,0,125,0c6.1,0,9.1-2.9,9.2-8.8
	c0-15.9-3.4-30.9-11.5-44.7c-11.8-19.9-29.8-31.8-51-39.4c-26.8-9.7-54.7-11.7-82.9-11.3c-23.1,0.3-45.7,3.6-67.3,12
	c-36,14-56.2,43.7-55.7,82.1c0.1,7.7,2.6,10.2,10.5,10.2C192.1,239.3,233.4,239.3,274.7,239.3z M143.1,315.6
	c0.3,2.9,0.6,5.4,0.8,7.9c1.4,15.4,10.5,24,26,24c69.2,0,138.5,0,207.7,0c2.6,0,5.3-0.1,7.8-0.7c13.2-3.2,20.7-16.1,18.1-31.1
	C316.9,315.6,230.3,315.6,143.1,315.6z M318.8,306.9c-7.3-7.9-14-15-20.5-22.3c-1.7-1.9-3.5-2.4-5.9-2.4c-16.8,0.1-33.7,0-50.5,0.1
	c-2.2,0-4.6,0.7-6.6,1.8c-11.8,6.6-23.1,1.3-25.4-12.1c-0.7-3.9-3.9-6.7-7.8-6.8c-4-0.1-7.3,2.4-8,6.4c-0.4,1.9-0.3,4-0.4,6
	c-0.5,7.2-5.3,13.3-12.1,15.6c-6.8,2.2-15.3,0.6-18.8-5.4c-3.3-5.6-7.4-6-12.6-5.6c-1.4,0.1-2.7,0-4.1,0c-5.5,0.1-9.6,2.3-10.6,6.6
	c-1.3,5.3-2.3,11.3,2.7,15.3c2.4,1.9,6.2,2.7,9.3,2.7c55.6,0.2,111.3,0.1,166.9,0.1C315.5,306.9,316.8,306.9,318.8,306.9z M276,248
	c1.1,1.3,1.9,2.3,2.7,3.1c14.1,15.3,28.3,30.6,42.4,45.8c5.1,5.5,9.5,5.4,14.4-0.4c12.9-15.3,25.8-30.7,38.7-46.1
	c0.6-0.7,1-1.5,1.7-2.5C342.5,248,309.6,248,276,248z M166.6,248c0,9.8-0.1,19.3,0.1,28.8c0.1,4.1,2.4,7,6.4,8.4
	c6.7,2.3,12.2-2.5,12.3-10.6c0.1-10.1,6.6-17.3,15.9-17.8c8.8-0.5,15.9,6.1,17.2,15.7c0.2,1.7,1.1,3.8,2.4,4.7
	c4.9,3.2,13.4-0.3,13.9-6c0.6-7.6,0.2-15.3,0.2-23.2C212.1,248,189.6,248,166.6,248z M337.9,306.8c22.9,0,45.3,0.1,67.7-0.1
	c2.2,0,4.9-1.6,6.4-3.2c4-4.5,3.4-10.1,1.6-15.2c-1.6-4.7-5.9-6-10.6-6c-13.8,0-27.7-0.1-41.5,0.1c-1.6,0-3.6,1-4.7,2.2
	C350.5,291.7,344.4,299,337.9,306.8z M365.7,273.8c12.2,0,23.3,0,34.4,0c10.7,0,13.7-3.1,13.7-13.8c0-0.7,0-1.5,0-2.2
	c-0.3-5.4-3.6-9.1-9-9.7c-3.3-0.3-6.8,0.1-10.1-0.3c-5.1-0.7-8.5,1.2-11.6,5.3C377.8,260,371.9,266.4,365.7,273.8z M288,273.6
	c-8-8.6-15.4-16.6-22.9-24.6c-0.5-0.6-1.5-1.1-2.2-1.1c-6.3-0.1-12.6-0.1-19.3-0.1c0,8.8,0,17.2,0,25.8
	C258,273.6,272.6,273.6,288,273.6z M158.1,247.8c-1.7,0-2.9,0-4.1,0c-3.6,0-7.2-0.1-10.8,0.2c-5.5,0.5-8.7,4-9.3,9.5
	c-0.9,8.7,1.2,13.7,6.8,15.7c0.4,0.1,0.7,0.4,1.1,0.4c5.4,0,10.8,0,16.4,0C158.1,264.9,158.1,256.6,158.1,247.8z"/>
<path d="M301.9,199.4c-0.5,0-1-0.2-1.3-0.6c-1-1.2-2.3-2.4-2.5-3.7c-0.5-2.4,1.2-4.4,3.7-4c1.5,0.3,3.6,2.2,3.8,3.5
	c0.1,1.3-1.2,2.7-2.2,4.1C302.9,199.2,302.4,199.4,301.9,199.4L301.9,199.4z"/>
<path d="M240.4,160.7c2.9,1.4,2.8,5.8-0.2,7.1c-0.3,0.1-0.5,0.2-0.8,0.2c-2.4,0.3-4-1.4-3.9-3.9c0.1-2.5,1.7-4.2,4.1-3.7
	C239.9,160.4,240.1,160.5,240.4,160.7z"/>
<path d="M282.7,160.1c0,0.5-0.2,1.1-0.6,1.4c-1.3,1.1-2.6,2.4-3.9,2.4c-1.3-0.1-3.3-2.1-3.6-3.6c-0.5-2.4,1.4-4.2,3.8-3.9
	c1.3,0.2,2.5,1.4,3.7,2.3C282.4,159.1,282.7,159.5,282.7,160.1L282.7,160.1z"/>
<path d="M228,195c0,0.5-0.3,1-0.7,1.3c-1.2,0.9-2.4,2.1-3.7,2.3c-2.4,0.3-3.9-1.4-3.9-3.9c0-2.6,1.7-4.1,4.1-3.6
	c1.3,0.3,2.4,1.5,3.6,2.5C227.8,194,228,194.5,228,195L228,195z"/>
<path d="M314.7,172.6c-0.1,0-0.2,0-0.3-0.1c-1-1.4-2.5-2.6-2.8-4.1c-0.4-2.1,0.8-3.7,2.9-4c2.7-0.4,5.1,2.1,4.6,4.8
	C318.7,170.9,317.4,171.9,314.7,172.6z"/>
<path d="M259,198.9c-0.5,0-1-0.3-1.4-0.7c-0.9-1.2-2-2.4-2.1-3.7c-0.3-2.4,1.4-4.3,3.8-3.7c1.5,0.4,3.4,2.4,3.5,3.7
	c0,1.3-1.3,2.5-2.4,3.8C260.1,198.7,259.6,198.9,259,198.9L259,198.9z"/>
</svg>
