<?xml version="1.0" encoding="utf-8"?>
<!-- Generator: Adobe Illustrator 24.3.0, SVG Export Plug-In . SVG Version: 6.00 Build 0)  -->
<svg version="1.1" id="Layer_1"  xmlns="http://www.w3.org/2000/svg" xmlns:xlink="http://www.w3.org/1999/xlink" x="0px" y="0px"
	 viewBox="0 0 512 512" style="enable-background:new 0 0 512 512;" xml:space="preserve">
<path d="M492,395.5c-3.2,6.5-6.5,13.1-9.7,19.7c-1.8,3.7-3.5,7.4-5.3,11.2c-5.5,12-14.9,17.9-28.1,17.9c-82.4,0-164.7,0-247.1,0
	c-16.8,0-33.7,0-50.5,0c-12.7,0-21.9-5.7-27.4-17.2c-4.7-9.8-9.3-19.6-13.8-29.4c-3.3-7.1,0.1-12.5,8-12.5c20.2,0,40.4,0,60.9,0
	c-0.2-0.7-0.2-1.3-0.4-1.8c-10.1-19.7-8.1-39,2.1-58c1.4-2.7,1.8-5,1-8c-1.2-4.7-1.5-9.6-2.1-14.4c-1.6-12.6-6.6-23.7-14.6-33.5
	c-4.4-5.3-8.7-10.6-13.1-15.9c-4.3-5.1-6.6-10.7-6.5-17.4c0.1-4.3-4.7-7.6-8.6-6.3c-10.6,3.6-22.2-1.5-26.4-11.8
	c-4.3-10.3,0.2-21.9,10.3-27c1.6-0.8,3.1-2.4,3.9-4c5.1-10,16.8-14.4,27.1-10.1c10.2,4.3,15.3,15.9,11.6,26.4c-1.3,3.7,2,8.6,6,8.5
	c7.2-0.2,13.1,2.5,18.4,7c5.5,4.7,11.1,9.3,16.8,13.8c10.4,8.1,22.3,12.5,35.4,13.7c7.5,0.7,14.7,2.4,21.6,5.7
	c0.9,0.5,2.2,0.9,3.1,0.7c7.7-2,15.3-4.2,23.5-6.6c-1.9-2.8-3.6-5.8-5.7-8.4c-4.6-5.9-9.4-11.7-14.3-17.3c-4.6-5.3-7.1-11.3-7-18.4
	c0-4-4.8-7.2-8.6-5.9c-10.6,3.7-22.1-1.5-26.4-11.7c-4.3-10.3,0.2-21.9,10.2-27c1.6-0.8,3.1-2.4,3.9-4c5.2-10,16.8-14.4,27.1-10.1
	c10.2,4.3,15.2,15.8,11.5,26.4c-1.3,3.8,2,8.6,6.2,8.5c7-0.1,12.8,2.4,18.1,6.9c5.3,4.5,10.7,9,16.2,13.3
	c11,8.7,23.5,13.4,37.4,14.5c33.8,2.6,58.1,34.9,51,68c-0.6,2.8,0,4.2,2.3,5.8c5.8,3.9,11.3,8.2,16.8,12.5c4.1,3.2,4.8,6.2,2.5,9.1
	c-2.3,2.9-5.6,2.6-9.8-0.6c-17.5-13.3-35.5-25.9-55.4-35.2c-19.7-9.3-40.3-15.6-62.3-15.2c-8.7,0.1-17.5,1.9-26.4,3.5
	c15.4,16.7,21.3,35.5,15.8,57.2c-3.4,13.4-11.3,23.9-22.6,32c-20.9,14.9-57.9,15.3-79.9-15.6c-6.1,13.2-7.5,26.4-1.9,39.9
	c4.5,10.9,4.6,10.9,16.2,10.9c7.5,0,15,0,22.5,0c4.4,0,6.9,2.1,6.8,5.6c0,3.5-2.5,5.6-6.9,5.6c-32.9,0-65.9,0-98.8,0
	c-1.4,0-2.7,0-4.4,0c0.5,1.3,0.9,2.4,1.4,3.3c3.6,7.7,7.2,15.4,10.8,23c3.3,6.8,8.8,10.3,16.4,10.4c0.9,0,1.7,0,2.6,0
	c98.1,0,196.2-0.1,294.2,0.1c9.6,0,16.1-3.7,19.9-12.6c3.4-8,7.4-15.7,11.3-24.2c-1.9,0-3.4,0-4.8,0c-72.6,0-145.2,0-217.9,0
	c-6,0-8.8-1.8-8.8-5.6c0-3.8,2.8-5.6,8.9-5.6c57.9,0,115.8,0,173.7,0.1c3.2,0,5.3-1,7.4-3.3c8.1-9.3,13.9-19.5,12.1-32.5
	c-1-7.2-4.2-13.5-8.3-19.4c-0.8-1.1-1.7-2.2-2.3-3.4c-1.6-2.8-1-6,1.5-7.6c2.7-1.8,5.4-1.5,7.4,1c14.2,17.9,18.6,38.1,6,58.9
	c-1.2,1.9-2.5,3.7-3.9,5.9c1.2,0.1,2.1,0.3,3,0.3c9.5,0,19,0.2,28.4-0.1c4.9-0.2,8.4,1.2,11,5.3C492,392,492,393.8,492,395.5z
	 M281.9,303.6c0.4-23.7-18.1-43.9-42-45.8c-16.8-1.3-31.7-7.2-44.8-17.9c-5.2-4.3-10.4-8.6-15.6-12.8c-6.4-5.2-14-5.1-19.2,0.2
	c-5.1,5.2-5.2,12.7-0.1,18.9c4.7,5.7,9.4,11.3,14,17c10,12.4,15.7,26.5,16.7,42.4c1.6,24.8,22,43.4,46.8,42.8
	C262.1,347.9,281.4,328.2,281.9,303.6z M396.9,277.2c0.2-1.3,0.5-2.6,0.6-3.9c2.2-24.8-16.6-47.1-41.5-49.1
	c-17.6-1.4-33.1-7.7-46.6-19.1c-5.1-4.3-10.2-8.8-15.6-12.8c-8.6-6.4-20.5-1.1-21.6,9.5c-0.4,4.4,1.4,7.9,4.1,11.3
	c8.1,10.1,17.3,19.3,23.1,31.1c0.4,0.8,2,1.4,3,1.3c21.5-0.8,41.8,4.3,61,13.6C374.7,264.6,385.5,271,396.9,277.2z M271.1,182.3
	c-5.8-4.4-6.9-9.4-3.2-15.9c2.7-4.7-0.1-10.6-5.1-12.6c-5-2.1-10.7,0.1-12.6,5.3c-1.6,4.3-4.1,7.1-8.6,8.5c-3.3,1-5.2,3.7-5.8,7.2
	c-0.6,3.9,0.6,7.2,3.8,9.5c3.3,2.4,6.9,2.4,10.6,0.6c6-3,8.6-2.6,13.3,2c0.6,0.6,1.3,1.1,1.7,1.4C267.2,186.3,269,184.4,271.1,182.3
	z M155.3,216.1c-6.3-7.1-6.3-7.1-2.8-16.4c1.8-5-0.5-10.4-5.4-12.4c-5-2.1-10.8,0.2-12.6,5.4c-1.5,4.3-4,6.9-8.3,8.3
	c-3.7,1.2-5.8,4.3-6.2,8.2c-0.3,3.8,1.2,6.9,4.4,8.9c3.6,2.3,7.3,1.9,11-0.1c4.5-2.4,7.8-1.9,11.6,1.6c0.9,0.8,1.8,1.6,2.6,2.4
	C151.5,220,153.3,218.1,155.3,216.1z"/>
<path d="M163.3,60.9c7.3,9.4,8.2,19.9,4.8,30.9c-0.5,1.8-1.3,3.5-2.3,5.1c-4.4,7-4,13.8-0.1,20.8c2,3.6,1.2,6.7-1.8,8.4
	c-3,1.6-6,0.6-8-3.1c-5.5-9.8-6.5-19.8-0.7-29.9c4.3-7.4,4.6-14.9,1.3-22.6c-1.7-4-1.2-7.2,2.3-9.8
	C160.3,60.9,161.8,60.9,163.3,60.9z"/>
<path d="M378.7,374.9c-8.7-1.8-17.8-2.6-26.2-5.5c-27.2-9.3-39.7-34-31.8-61.6c0.9-3.2,2.1-6.4,3.4-9.5c1.6-3.7,4.7-5.5,8.7-5.3
	c3.9,0.2,7.3,2.1,8.2,6c4.1,17.6,17.5,23.2,33.2,26.1c9.3,1.7,18.6,3.2,27.9,5.3c6.6,1.5,12.6,4.5,17.5,9.5
	c8.2,8.4,7.4,17.8-2.5,24.2c-10.2,6.6-21.8,8.9-33.7,9.6c-1.5,0.1-3,0-4.5,0C378.8,374.1,378.8,374.5,378.7,374.9z M332.2,309.2
	c-7.6,21.6,1.8,41.8,23.1,49.5c10.5,3.8,21.4,4.7,32.4,3.4c8-0.9,15.7-2.9,22.7-7c4.3-2.5,4.4-4.3,0.8-7.7c-4.5-4.3-10.3-6-16.2-7.2
	c-9.6-1.9-19.4-3.4-29-5.4c-9.8-2.1-18.9-5.9-25.7-13.5C337.3,317.7,335,313.4,332.2,309.2z"/>
<path d="M415.6,187c1.4-4.3,2.3-9,4.4-12.9c4.3-8,4.7-15.8,1.2-24c-1.7-4.1-0.6-7.1,2.7-8.4c3.3-1.4,6,0.1,7.7,4.3
	c4.4,10.6,5,21.1-0.8,31.3c-4.1,7.1-3.8,13.8-0.1,20.9c0.9,1.8,0.8,4.7,0,6.5c-0.6,1.3-3.3,2.3-5,2.2c-1.5-0.1-3.4-1.5-4.3-2.9
	C418.1,198.8,416.3,193.3,415.6,187z"/>
<path d="M204.7,125.8c-1.7,5.2-2.8,10.8-5.3,15.6c-3.7,7.1-3.8,13.7,0.1,20.6c2.1,3.8,1.2,7.1-1.8,8.6c-3,1.5-6.1,0.2-8-3.3
	c-5.2-9.6-6.5-19.4-0.9-29.2c4.5-7.9,4.7-15.8,1.2-24c-0.2-0.5-0.4-0.9-0.5-1.4c-0.9-3.2,0.4-6,3.3-7c2.9-1.1,6,0,7.1,3.1
	C201.6,114.2,203,119.8,204.7,125.8z"/>
<path d="M461.9,224.2c-1.7,5.2-2.7,10.7-5.2,15.4c-3.8,7.2-3.9,13.9,0.1,20.9c1.9,3.4,1.2,6.5-1.5,8.2c-2.7,1.7-6,1-7.8-2
	c-5.5-9.2-7.5-19-2.2-28.8c4.8-8.8,5.6-17.3,1.6-26.4c-1.4-3.2,0-6.3,2.8-7.5c2.9-1.2,6.2-0.1,7.3,3.2
	C459,212.7,460.3,218.2,461.9,224.2z"/>
</svg>
