<?xml version="1.0" encoding="utf-8"?>
<!-- Generator: Adobe Illustrator 24.3.0, SVG Export Plug-In . SVG Version: 6.00 Build 0)  -->
<svg version="1.1" id="Layer_1" xmlns="http://www.w3.org/2000/svg" xmlns:xlink="http://www.w3.org/1999/xlink" x="0px" y="0px"
	 viewBox="0 0 512 512" style="enable-background:new 0 0 512 512;" xml:space="preserve">
<path d="M218.5,284c34.2,0.5,68-2.3,101-11.9c12-3.5,23.7-7.7,34.1-15c3.2-2.3,6.2-5.1,8.7-8.1c3.4-4.2,3.6-8.9,0-13
	c-3.4-3.9-7.6-7.1-11.6-10.4c-4.2-3.4-4.9-9.3-0.8-12.1c1.9-1.3,5.1-2.1,7.2-1.5c10.5,3,22.9,18.1,22.9,28.8c0,9-0.8,18.2-2.5,27.1
	c-6.5,33.1-24.2,59.8-49.1,81.9c-9.3,8.2-19.8,15.1-29.9,22.4c-1.8,1.3-3.1,2.4-3.1,4.9c0,6.4-3.9,10.8-9.3,12.9
	c-7.2,2.9-14.7,5.7-22.4,6.8c-32.4,4.9-64.9,5.1-97.2-1.3c-5.9-1.2-11.7-3.6-17.1-6.2c-5.2-2.5-8.3-7-8.3-13.2
	c0-1.3-1.5-2.9-2.8-3.7c-21.6-13.5-40.5-29.9-55.4-50.7c-16.1-22.4-25.1-47.3-26.4-75.1c-0.6-12.5,4.8-21.6,14.1-28.9
	c13.1-10.3,28.4-15.9,44.2-20.3c38.8-10.7,78.5-13.6,118.6-12.4c8.8,0.3,17.7,0.9,26.5,1.6c5.7,0.5,8.9,3.9,8.4,8.4
	c-0.5,4.6-4,7-9.8,6.8c-18.8-0.5-37.7-1.7-56.5-1.4c-32.3,0.7-64.1,4.8-94.8,15.5c-9.4,3.3-18.6,7.3-26.6,13.5
	c-11.4,8.8-11.5,16.8-0.3,25.7c10.9,8.5,23.7,13.1,36.8,17c24.3,7.2,49.2,10.6,74.4,11.9C200.6,284.4,209.6,284,218.5,284z
	 M75.5,271.8c2,5.6,3.7,11.3,6.1,16.6c14.4,32,38.5,55.1,68.3,72.6c4.8,2.8,7.4,6.1,6.7,11.6c-0.3,2.7,0.8,4.3,3.3,5
	c6,1.5,12,3.5,18.1,4.4c20,3.2,40.3,3.3,60.5,2.2c12.2-0.7,24.3-2,36.1-5.8c3.7-1.2,6-2.9,5.3-7.4c-0.6-4.1,1.4-7.1,5.1-9.1
	c13.4-7.3,25.6-16.5,36.6-27c17.9-17.1,31.7-36.8,38.5-60.9c0.2-0.8,0.3-1.7,0.3-1.7c-10.9,4.4-21.6,9.5-32.8,13
	c-32.3,10.3-65.8,13.8-99.6,14.4c-35.8,0.7-71.3-1.9-106.1-10.6C106,285.3,90.5,280,75.5,271.8z"/>
<path d="M367.7,92.2c18.7,0,35.3,16,35,33.9c-0.1,6.2-2.4,11.7-6.4,16.4c-16.9,20-33.9,39.9-51,59.8c-5.8,6.8-11.7,13.7-17.8,20.2
	c-3.3,3.5-4.6,7.5-5,12.1c-0.6,6.7-1.2,13.4-2.1,20.1c-0.7,5-4.2,7.6-8.9,6.9c-4.1-0.6-6.7-4-6.3-8.7c0.8-8.6,1.3-17.2,3-25.6
	c0.9-4.5,3.2-9.3,6.2-12.8c20.1-23.7,40.6-47,60.9-70.5c3.2-3.7,6.1-7.5,9.1-11.4c3.5-4.4,3.6-9.2,0.9-14c-3-5.4-7.6-8.9-13.5-10.5
	c-6.4-1.7-11-0.1-14.8,5.8c-14.4,22.5-28.6,45-42.8,67.6c-4.7,7.5-9.4,15-14,22.6c-2.8,4.7-6.6,8.1-11.5,10.3
	c-5.7,2.6-11.5,4.9-17.2,7.3c-15.4,6.6-29.3,15.2-38.4,29.8c-2.9,4.6-5,9.7-7.2,14.7c-2.1,5.1-5.7,7.4-10,6c-4.5-1.5-6.3-5.7-4.6-11
	c7.2-21.4,21.5-36.9,41.1-47.4c8.3-4.5,17.2-7.9,25.9-11.6c4.5-1.9,7.8-4.8,10.5-9c17-27.6,34.3-55,51.5-82.4c1.9-3.1,4-6,6.3-8.8
	C352.2,95.5,359.2,92.3,367.7,92.2z"/>
<path d="M264.7,77.6c-0.6,1.2-1.3,3.2-2.6,4.8c-4.3,5.6-5.3,11.8-2.8,18.3c2.6,6.9,5.6,13.6,8.3,20.4c5.8,14.9,4.8,29.2-3.4,43
	c-2.7,4.6-6.9,6.1-10.9,3.9c-4-2.2-5.2-6.8-2.5-11.3c6.3-10.5,6.5-21.1,1.7-32.2c-2.4-5.6-4.8-11.2-7-16.9
	c-4.9-12.7-3.6-24.7,5.2-35.4c2.4-2.9,5.3-4.1,8.9-2.7C262.9,70.8,264.4,73.3,264.7,77.6z"/>
<path d="M156.8,160.5c0.3-0.8,0.8-2.7,1.7-4.2c5.8-9.9,6.1-20,1.9-30.5c-3.4-8.5-7.1-17-9.5-25.8c-2.8-10.5,0.7-19.9,7.6-28.1
	c2.7-3.3,7.1-3.7,10.4-1.3c3.4,2.5,4.5,7.1,1.6,10.6c-6.5,7.8-5.6,15.8-2.2,24.5c3.6,9.1,7.5,18.2,9.7,27.7
	c2.7,11.6-1.1,22.4-7.3,32.3c-1.9,3.1-5.5,4.2-8.9,3C159,167.7,156.9,164.7,156.8,160.5z"/>
<path d="M218.5,77.5c-0.6,1.2-1.3,3.2-2.6,4.8c-4.3,5.6-5.5,11.7-2.9,18.3c2.7,7,5.7,13.8,8.4,20.8c5.9,14.9,4.7,29.2-3.6,43
	c-2.6,4.3-6.8,5.9-10.7,3.8c-4-2.1-5.4-6.8-2.7-11.3c6.4-10.6,6.5-21.4,1.7-32.5c-2.3-5.4-4.7-10.7-6.8-16.2
	c-5-13-3.9-25.2,5.2-36.1c2.3-2.8,5.2-3.8,8.7-2.6C216.5,70.7,218.1,73.2,218.5,77.5z"/>
</svg>
