<?xml version="1.0" encoding="utf-8"?>
<!-- Generator: Adobe Illustrator 24.3.0, SVG Export Plug-In . SVG Version: 6.00 Build 0)  -->
<svg version="1.1" id="Layer_1" xmlns="http://www.w3.org/2000/svg" xmlns:xlink="http://www.w3.org/1999/xlink" x="0px" y="0px"
	 viewBox="0 0 512 512" style="enable-background:new 0 0 512 512;" xml:space="preserve">
<path d="M254.6,64c0.9,0.3,1.8,0.7,2.8,1c10.6,3.7,16.2,14.4,13.2,25.1c-2.8,9.8-9.2,17-17.1,23c-1,0.8-2,1.5-3,2.3
	c-0.1,0.1-0.1,0.2-0.1,0.6c8.3,5.2,13.7,12.7,15.8,22.8c1.4,0,2.7,0,4,0c18.8,0,37.7,0,56.5,0c13.2,0,21.8,8.5,21.9,21.7
	c0.1,4.1,0,8.2-0.3,12.3c-0.3,4.8-2.6,8.7-5.7,12.3c-1.1,1.2-1.8,3.2-1.9,4.8c-0.2,5,0,10-0.1,15c-0.1,4.1-2.2,6.5-5.6,6.6
	c-3.4,0-5.6-2.3-5.6-6.5c-0.1-4.5,0-8.9,0-12.8c-4.9-1.6-9.3-3.2-13.7-4.6c-8.9-2.7-17.2-1.5-25.1,3.4c-9.1,5.8-19.2,7-29.5,4.5
	c-4.5-1.1-8.8-3.3-13-5.5c-9.6-5.1-19.1-5.5-28.5,0c-14.9,8.8-29.6,8.9-44.5,0c-8.4-5-17.2-5-26.2-1.3c-3.3,1.4-6.9,2-10.7,3.1
	c0,18.2,0,36.9,0,55.9c63.5,0,127.1,0,191.2,0c0-3.1,0-6.3,0-9.5c0-9,1.3-11.8,5.7-11.7c4.3,0.1,5.5,2.9,5.5,11.9c0,3,0,6,0,9.5
	c1.5,0,2.8,0,4.1,0c11.7,0,23.5,0,35.2,0c12.7,0,21.4,8.6,21.5,21.3c0.1,9,0,18,0,26.9c0,9-4,15.4-11.9,19.6
	c-0.9,0.5-2.1,1.6-2.1,2.5c-0.1,12.8-0.1,25.6-0.1,39c2,0,3.7-0.1,5.4,0c7.8,0.3,13.1,5.6,13.2,13.4c0.1,2.7,0.1,5.5,0,8.2
	c-0.2,7-4.6,12-11.5,13.1c-1.6,0.2-3.2,0.2-4.9,0.2c-42.4,0-84.8,0-127.2,0c-1.6,0-3.2,0-5.2,0c0,6.6,0,13,0,19.9
	c1.2,0.1,2.5,0.2,3.8,0.2c7.7,0.1,15.5-0.2,23.2,0.3c10.7,0.6,18.9,9.5,19.3,20.2c0.3,8.5-5.2,14.2-13.7,14.3
	c-21.5,0.1-42.9,0-64.4,0c-15.6,0-31.2,0-46.8,0c-10.7,0-16.7-7.6-14.2-18.2c2.1-9.2,9.9-16,19.4-16.4c7.5-0.3,15-0.1,22.4-0.2
	c1.3,0,2.7,0,4.1,0c0-6.8,0-13.1,0-20.1c-1.6,0-3.2,0-4.7,0c-42.9,0-85.8,0-128.7,0c-4.5,0-9-0.6-11.8-4.4c-1.8-2.4-2.8-5.5-3.5-8.4
	c-0.6-2.7-0.2-5.7-0.1-8.6c0.1-8,5.4-13.3,13.4-13.6c1.6-0.1,3.2,0,5.3,0c0-3.4,0-6.5,0-9.6c0-9.2-0.1-18.5,0-27.7
	c0-2.2-0.5-3.5-2.7-4.6c-8.2-4.1-11.9-11-11.5-20.1c0.1-3.4,2.2-5.5,5.3-5.6c3.1-0.1,5.3,1.8,5.8,5.2c0.1,0.6,0.1,1.2,0.1,1.9
	c0.4,8,7.1,11.9,14.2,8.2c6.2-3.3,12.7-5.1,19.6-5.3c9.3-0.3,17.7,2.5,25.4,7.4c7.4,4.7,15.4,5.7,23.7,3.6c3.7-0.9,7.2-2.8,10.5-4.7
	c15.1-8.7,30.1-8.9,45,0.1c12.2,7.4,24.1,7.2,36.3-0.1c14.8-8.9,29.9-8.8,44.6,0c12.2,7.4,24.1,7.4,36.3,0
	c14.1-8.5,28.5-8.7,43.1-1.2c7.5,3.9,14.3-0.3,14.4-8.8c0.1-8.9,0.1-17.7,0-26.6c-0.1-6.7-3.7-10.3-10.5-10.3
	c-97.4,0-194.9,0-292.3,0c-6.3,0-9.5,3-10.3,9.4c-0.5,3.8-2.8,6.1-5.9,6c-3.4-0.2-5.4-2.7-5.3-6.8c0.2-10.8,9.2-19.6,20.4-19.8
	c12-0.1,24,0,35.9,0c1.3,0,2.7,0,4.5,0c0-1.7,0-3,0-4.3c0-17.8,0-35.7,0-53.5c0-2.4-0.4-4.2-2.2-5.9c-3.6-3.5-5.4-8-5.4-13.1
	c0-4.2-0.1-8.5,0-12.7c0.3-10.7,9-19.4,19.7-19.7c5.5-0.2,11-0.1,16.5,0c3.8,0,6.3,2.2,6.4,5.4c0.1,3.3-2.5,5.7-6.4,5.8
	c-5,0.1-10,0-15,0c-6.3,0.1-9.9,3.7-10,10.1c-0.1,3,0,6,0,9c0.1,9,6.3,13,14.6,9.3c8.7-3.9,17.6-4.4,26.7-2c4,1.1,7.8,3.2,11.5,5.2
	c9.5,5.2,19.1,5.5,28.5,0c10.2-6.1,20.8-8.3,32.2-5.3c4.4,1.2,8.5,3.4,12.6,5.6c9.2,4.8,18.6,5.3,27.5,0c13.2-7.9,26.5-9.2,40.6-2.8
	c5.9,2.7,12.2-1.2,12.8-7.7c0.4-3.6,0.2-7.2,0.1-10.8c-0.2-6.9-3.8-10.4-10.8-10.4c-39,0-78.1,0-117.1,0c-8.6,0-17.2,0-25.8,0
	c-4.4,0-6.9-2-6.9-5.6c0-3.6,2.4-5.6,6.8-5.7c5.9,0,11.7,0,17.8,0c2.1-9.9,7.3-17.5,16.1-22.9c-1.9-1.4-3.5-2.7-5.2-4
	c-7.2-5.8-13-12.8-15.5-21.9c-3.1-11.2,2.8-21.9,13.9-25.3c0.7-0.2,1.4-0.5,2.1-0.8c2.7,0,5.5,0,8.2,0c4.4,2.1,8.8,4.2,12.8,6.1
	c4.5-2,8.9-4,13.4-6.1C249.6,64,252.1,64,254.6,64z M91.2,357.5c7.2,0,13.9,0,20.6,0c10,0,20-0.1,29.9,0c5.3,0,8.2,4.4,5.9,8.4
	c-1.5,2.5-3.8,2.8-6.5,2.8c-17.6,0-35.2,0-52.8,0c-4.1,0-8.2,0.1-12.3,0c-2.6-0.1-3.7,1-3.5,3.5c0.1,1,0,2,0,3c0,5.9,0,5.9,5.9,5.9
	c103.4,0,206.8,0,310.2,0c0.9,0,1.7,0,2.6,0c2.4,0.1,3.5-0.9,3.3-3.3c-0.1-1.1,0-2.2,0-3.4c0-5.7,0-5.7-5.7-5.7
	c-72.1,0-144.2,0-216.3,0c-1.4,0-2.8,0.1-4.1-0.1c-3.1-0.3-4.8-2.2-5.1-5.1c-0.2-3,1.4-5.1,4.3-5.8c1.5-0.4,3.2-0.3,4.8-0.3
	c66.1,0,132.2,0,198.3,0c1.6,0,3.2,0,5.1,0c0-1.8,0-3.1,0-4.4c0-9.7-0.2-19.5,0.1-29.2c0.2-4.5-0.8-6.8-5.3-8.9
	c-11.2-5.3-21.8-5.5-32.4,0.9c-15.9,9.7-31.7,9.6-47.6,0c-11-6.7-22.2-6.7-33.2,0c-16.1,9.8-31.9,9.6-48-0.1
	c-10.9-6.6-22.1-6.6-32.9,0c-16.2,9.8-32.2,9.8-48.3-0.1c-3-1.8-6.5-3.1-10-4c-9.5-2.5-17.9,1.1-26.1,5.3c-0.6,0.3-1,1.4-1,2.1
	C91.2,331.7,91.2,344.3,91.2,357.5z M233.6,436c17.8,0,35.7,0,53.5,0c5.3,0,6.5-2.1,4-6.9c-2.5-4.6-6.7-5.5-11.4-5.5
	c-30.7,0.1-61.3,0-92,0c-1.4,0-2.8,0-4.1,0.2c-3.9,0.6-6.6,2.9-7.9,6.6c-1.5,4.1-0.5,5.5,3.8,5.5C197.5,436,215.5,436,233.6,436z
	 M217.1,74.3c-0.2,0.3-0.3,0.6-0.5,0.9c-6.1-0.1-10.4,4.8-9.3,10.8c0.4,2.3,1.2,4.6,2.4,6.6c5.2,8.9,13.3,14.3,22.5,18.2
	c0.8,0.3,2,0.2,2.8-0.1c8.3-3.5,15.7-8.3,20.9-15.8c1.8-2.6,3.3-5.7,3.9-8.7c1.5-6.5-4.4-12.3-10.9-10.7c-2.9,0.7-5.8,2.4-8.1,4.4
	c-6.4,5.5-8.2,5.5-14.4-0.1C223.8,77.5,220.3,76.1,217.1,74.3z M254.3,138.7c-2.6-10.1-11.7-16.5-22.2-15.8
	c-9.3,0.6-17.8,7.8-18.7,15.8C226.9,138.7,240.5,138.7,254.3,138.7z M221.8,412.2c8.1,0,15.9,0,23.6,0c0-6.7,0-13.1,0-19.5
	c-8,0-15.7,0-23.6,0C221.8,399.3,221.8,405.6,221.8,412.2z"/>
</svg>
